# xmcd
#
# Track frame offsets: 
#        150
#        25918
#        49268
#        70965
#        88013
#        111468
#        130873
#        150073
#        167800
#        182193
#        205723
#        225645
#        241613
#
# Disc length: 3262 seconds
#
# Revision: 2
# Processed by: cddbd v1.5.1PL0 Copyright (c) Steve Scherf et al.
# Submitted via: ExactAudioCopy v0.95a5
#
DISCID=a40cbc0d
DTITLE=Joe Williams - Feel the Sprit
DYEAR=1995
DGENRE=Gospel
TTITLE0=In the Beginning/My Lord
TTITLE1=Feel the Spirit
TTITLE2=Go Down Moses/Wade in the Water
TTITLE3=Great Camp Meeting
TTITLE4=Were You There?
TTITLE5=Walk with Me
TTITLE6=I Couldn't Hear Nobody Pray
TTITLE7=In My Heart
TTITLE8=Little David
TTITLE9=His Eye Is on the Sparrow
TTITLE10=Pass It On
TTITLE11=The Lord's Prayer
TTITLE12=Doxology
EXTD=Telarc\nDDD\nCD-83362
EXTT0=
EXTT1=
EXTT2=
EXTT3=
EXTT4=
EXTT5=
EXTT6=
EXTT7=
EXTT8=
EXTT9=
EXTT10=
EXTT11=
EXTT12=
PLAYORDER=
